<svg xmlns="http://www.w3.org/2000/svg" xmlns:xlink="http://www.w3.org/1999/xlink" contentStyleType="text/css" data-diagram-type="CLASS" height="831px" preserveAspectRatio="none" style="width:1327px;height:831px;background:#FFFFFF;" version="1.1" viewBox="0 0 1327 831" width="1327px" zoomAndPan="magnify"><?plantuml 1.2026.3beta6?><defs/><g><g class="title" data-source-line="3"><text fill="#000000" font-family="Verdana" font-size="22" font-weight="700" lengthAdjust="spacing" textLength="538.2158" x="393.8233" y="35.4209">ER-&#1076;&#1080;&#1072;&#1075;&#1088;&#1072;&#1084;&#1084;&#1072; &#1075;&#1077;&#1085;&#1077;&#1090;&#1080;&#1095;&#1077;&#1089;&#1082;&#1086;&#1081; &#1073;&#1072;&#1079;&#1099; &#1076;&#1072;&#1085;&#1085;&#1099;&#1093;</text></g><!--class Family--><g class="entity" data-qualified-name="Family" data-source-line="6" id="ent0002"><rect fill="#FFFFFF" height="92.8906" rx="2.5" ry="2.5" style="stroke:#000000;stroke-width:1;" width="247.8262" x="12" y="58.6094"/><ellipse cx="108.9961" cy="72.6094" fill="#FFFFFF" rx="9" ry="9" style="stroke:#000000;stroke-width:1;"/><path d="M113.1055,78.6094 L105.3867,78.6094 L105.3867,66.2188 L113.1055,66.2188 L113.1055,68.375 L107.8398,68.375 L107.8398,71.0469 L112.6055,71.0469 L112.6055,73.2031 L107.8398,73.2031 L107.8398,76.4531 L113.1055,76.4531 L113.1055,78.6094 Z " fill="#000000"/><text fill="#000000" font-family="Verdana" font-size="14" lengthAdjust="spacing" textLength="46.334" x="126.4961" y="77.4561">Family</text><line style="stroke:#000000;stroke-width:1;" x1="13" x2="258.8262" y1="86.6094" y2="86.6094"/><g data-visibility-modifier="IE_MANDATORY"><ellipse cx="23" cy="100.2578" fill="#FFFFFF" rx="3" ry="3" style="stroke:#000000;stroke-width:1;"/></g><text fill="#000000" font-family="Verdana" font-size="14" lengthAdjust="spacing" textLength="138.9609" x="30" y="103.6045">family_id : INT &#171;PK&#187;</text><line style="stroke:#000000;stroke-width:1;" x1="13" x2="258.8262" y1="110.9063" y2="110.9063"/><text fill="#000000" font-family="Verdana" font-size="14" lengthAdjust="spacing" textLength="235.8262" x="18" y="127.9014">family_code : VARCHAR(50) &#171;UK&#187;</text><text fill="#000000" font-family="Verdana" font-size="14" lengthAdjust="spacing" textLength="213.8896" x="18" y="144.1982">is_consanguineous : BOOLEAN</text></g><!--class Project--><g class="entity" data-qualified-name="Project" data-source-line="13" id="ent0003"><rect fill="#FFFFFF" height="76.5938" rx="2.5" ry="2.5" style="stroke:#000000;stroke-width:1;" width="268.3613" x="433.73" y="297.6894"/><ellipse cx="539.9341" cy="311.6894" fill="#FFFFFF" rx="9" ry="9" style="stroke:#000000;stroke-width:1;"/><path d="M544.0435,317.6894 L536.3247,317.6894 L536.3247,305.2987 L544.0435,305.2987 L544.0435,307.455 L538.7779,307.455 L538.7779,310.1269 L543.5435,310.1269 L543.5435,312.2831 L538.7779,312.2831 L538.7779,315.5331 L544.0435,315.5331 L544.0435,317.6894 Z " fill="#000000"/><text fill="#000000" font-family="Verdana" font-size="14" lengthAdjust="spacing" textLength="48.4531" x="557.4341" y="316.5361">Project</text><line style="stroke:#000000;stroke-width:1;" x1="434.73" x2="701.0913" y1="325.6894" y2="325.6894"/><g data-visibility-modifier="IE_MANDATORY"><ellipse cx="444.73" cy="339.3378" fill="#FFFFFF" rx="3" ry="3" style="stroke:#000000;stroke-width:1;"/></g><text fill="#000000" font-family="Verdana" font-size="14" lengthAdjust="spacing" textLength="144.6484" x="451.73" y="342.6845">project_id : INT &#171;PK&#187;</text><line style="stroke:#000000;stroke-width:1;" x1="434.73" x2="701.0913" y1="349.9862" y2="349.9862"/><text fill="#000000" font-family="Verdana" font-size="14" lengthAdjust="spacing" textLength="256.3613" x="439.73" y="366.9814">project_name : VARCHAR(100) &#171;UK&#187;</text></g><!--class Diagnosis--><g class="entity" data-qualified-name="Diagnosis" data-source-line="19" id="ent0004"><rect fill="#FFFFFF" height="92.8906" rx="2.5" ry="2.5" style="stroke:#000000;stroke-width:1;" width="282.751" x="737.54" y="289.5394"/><ellipse cx="841.1396" cy="303.5394" fill="#FFFFFF" rx="9" ry="9" style="stroke:#000000;stroke-width:1;"/><path d="M845.249,309.5394 L837.5302,309.5394 L837.5302,297.1487 L845.249,297.1487 L845.249,299.305 L839.9834,299.305 L839.9834,301.9769 L844.749,301.9769 L844.749,304.1331 L839.9834,304.1331 L839.9834,307.3831 L845.249,307.3831 L845.249,309.5394 Z " fill="#000000"/><text fill="#000000" font-family="Verdana" font-size="14" lengthAdjust="spacing" textLength="68.0518" x="858.6396" y="308.3861">Diagnosis</text><line style="stroke:#000000;stroke-width:1;" x1="738.54" x2="1019.291" y1="317.5394" y2="317.5394"/><g data-visibility-modifier="IE_MANDATORY"><ellipse cx="748.54" cy="331.1878" fill="#FFFFFF" rx="3" ry="3" style="stroke:#000000;stroke-width:1;"/></g><text fill="#000000" font-family="Verdana" font-size="14" lengthAdjust="spacing" textLength="161.9092" x="755.54" y="334.5345">diagnosis_id : INT &#171;PK&#187;</text><line style="stroke:#000000;stroke-width:1;" x1="738.54" x2="1019.291" y1="341.8362" y2="341.8362"/><text fill="#000000" font-family="Verdana" font-size="14" lengthAdjust="spacing" textLength="258.7744" x="743.54" y="358.8314">diagnosis_code : VARCHAR(10) &#171;UK&#187;</text><text fill="#000000" font-family="Verdana" font-size="14" lengthAdjust="spacing" textLength="270.751" x="743.54" y="375.1282">diagnosis_description : VARCHAR(255)</text></g><!--class Partner--><g class="entity" data-qualified-name="Partner" data-source-line="26" id="ent0005"><rect fill="#FFFFFF" height="76.5938" rx="2.5" ry="2.5" style="stroke:#000000;stroke-width:1;" width="271.417" x="295.2" y="66.7594"/><ellipse cx="401.4041" cy="80.7594" fill="#FFFFFF" rx="9" ry="9" style="stroke:#000000;stroke-width:1;"/><path d="M405.5135,86.7594 L397.7947,86.7594 L397.7947,74.3687 L405.5135,74.3687 L405.5135,76.525 L400.2479,76.525 L400.2479,79.1969 L405.0135,79.1969 L405.0135,81.3531 L400.2479,81.3531 L400.2479,84.6031 L405.5135,84.6031 L405.5135,86.7594 Z " fill="#000000"/><text fill="#000000" font-family="Verdana" font-size="14" lengthAdjust="spacing" textLength="51.5088" x="418.9041" y="85.6061">Partner</text><line style="stroke:#000000;stroke-width:1;" x1="296.2" x2="565.617" y1="94.7594" y2="94.7594"/><g data-visibility-modifier="IE_MANDATORY"><ellipse cx="306.2" cy="108.4078" fill="#FFFFFF" rx="3" ry="3" style="stroke:#000000;stroke-width:1;"/></g><text fill="#000000" font-family="Verdana" font-size="14" lengthAdjust="spacing" textLength="147.7041" x="313.2" y="111.7545">partner_id : INT &#171;PK&#187;</text><line style="stroke:#000000;stroke-width:1;" x1="296.2" x2="565.617" y1="119.0562" y2="119.0562"/><text fill="#000000" font-family="Verdana" font-size="14" lengthAdjust="spacing" textLength="259.417" x="301.2" y="136.0514">partner_name : VARCHAR(255) &#171;UK&#187;</text></g><!--class Patient--><g class="entity" data-qualified-name="Patient" data-source-line="32" id="ent0006"><rect fill="#FFFFFF" height="214.9688" rx="2.5" ry="2.5" style="stroke:#000000;stroke-width:1;" width="232.5098" x="166.66" y="228.4994"/><ellipse cx="254.4769" cy="242.4994" fill="#FFFFFF" rx="9" ry="9" style="stroke:#000000;stroke-width:1;"/><path d="M258.5863,248.4994 L250.8675,248.4994 L250.8675,236.1088 L258.5863,236.1088 L258.5863,238.265 L253.3206,238.265 L253.3206,240.9369 L258.0863,240.9369 L258.0863,243.0931 L253.3206,243.0931 L253.3206,246.3431 L258.5863,246.3431 L258.5863,248.4994 Z " fill="#000000"/><text fill="#000000" font-family="Verdana" font-size="14" lengthAdjust="spacing" textLength="49.376" x="271.9769" y="247.3461">Patient</text><line style="stroke:#000000;stroke-width:1;" x1="167.66" x2="398.1698" y1="256.4994" y2="256.4994"/><g data-visibility-modifier="IE_MANDATORY"><ellipse cx="177.66" cy="270.1478" fill="#FFFFFF" rx="3" ry="3" style="stroke:#000000;stroke-width:1;"/></g><text fill="#000000" font-family="Verdana" font-size="14" lengthAdjust="spacing" textLength="208.5098" x="184.66" y="273.4945">patient_uuid : CHAR(36) &#171;PK&#187;</text><line style="stroke:#000000;stroke-width:1;" x1="167.66" x2="398.1698" y1="280.7963" y2="280.7963"/><g data-visibility-modifier="IE_MANDATORY"><ellipse cx="177.66" cy="294.4447" fill="#FFFFFF" rx="3" ry="3" style="stroke:#000000;stroke-width:1;"/></g><text fill="#000000" font-family="Verdana" font-size="14" lengthAdjust="spacing" textLength="182.3965" x="184.66" y="297.7914">uin1 : VARCHAR(50) &#171;UK&#187;</text><text fill="#000000" font-family="Verdana" font-size="14" lengthAdjust="spacing" textLength="147.5469" x="184.66" y="314.0882">sex : ENUM('XX','XY')</text><text fill="#000000" font-family="Verdana" font-size="14" lengthAdjust="spacing" textLength="188.0361" x="184.66" y="330.3851">full_name : VARCHAR(255)</text><text fill="#000000" font-family="Verdana" font-size="14" lengthAdjust="spacing" textLength="122.835" x="184.66" y="346.682">birth_date : DATE</text><text fill="#000000" font-family="Verdana" font-size="14" lengthAdjust="spacing" textLength="193.4434" x="184.66" y="362.9789">relationship : VARCHAR(20)</text><text fill="#000000" font-family="Verdana" font-size="14" lengthAdjust="spacing" textLength="203.4033" x="184.66" y="379.2757">card_number : VARCHAR(50)</text><text fill="#000000" font-family="Verdana" font-size="14" lengthAdjust="spacing" textLength="160.8496" x="184.66" y="395.5726">admission_date : DATE</text><line style="stroke:#000000;stroke-width:1;" x1="167.66" x2="398.1698" y1="402.8744" y2="402.8744"/><text fill="#000000" font-family="Verdana" font-size="14" lengthAdjust="spacing" textLength="138.5713" x="172.66" y="419.8695">family_id : INT &#171;FK&#187;</text><text fill="#000000" font-family="Verdana" font-size="14" lengthAdjust="spacing" textLength="147.3145" x="172.66" y="436.1664">partner_id : INT &#171;FK&#187;</text></g><!--class ParentChild--><g class="entity" data-qualified-name="ParentChild" data-source-line="47" id="ent0007"><rect fill="#FFFFFF" height="76.5938" rx="2.5" ry="2.5" style="stroke:#000000;stroke-width:1;" width="255.0205" x="137.4" y="630.3994"/><ellipse cx="220.6266" cy="644.3994" fill="#FFFFFF" rx="9" ry="9" style="stroke:#000000;stroke-width:1;"/><path d="M224.7359,650.3994 L217.0172,650.3994 L217.0172,638.0088 L224.7359,638.0088 L224.7359,640.165 L219.4703,640.165 L219.4703,642.8369 L224.2359,642.8369 L224.2359,644.9931 L219.4703,644.9931 L219.4703,648.2431 L224.7359,648.2431 L224.7359,650.3994 Z " fill="#000000"/><text fill="#000000" font-family="Verdana" font-size="14" lengthAdjust="spacing" textLength="81.0674" x="238.1266" y="649.2461">ParentChild</text><line style="stroke:#000000;stroke-width:1;" x1="138.4" x2="391.4205" y1="658.3994" y2="658.3994"/><line style="stroke:#000000;stroke-width:1;" x1="138.4" x2="391.4205" y1="666.3994" y2="666.3994"/><g data-visibility-modifier="IE_MANDATORY"><ellipse cx="148.4" cy="680.0478" fill="#FFFFFF" rx="3" ry="3" style="stroke:#000000;stroke-width:1;"/></g><text fill="#000000" font-family="Verdana" font-size="14" lengthAdjust="spacing" textLength="218.0596" x="155.4" y="683.3945">child_uuid : CHAR(36) &#171;PK, FK&#187;</text><g data-visibility-modifier="IE_MANDATORY"><ellipse cx="148.4" cy="696.3447" fill="#FFFFFF" rx="3" ry="3" style="stroke:#000000;stroke-width:1;"/></g><text fill="#000000" font-family="Verdana" font-size="14" lengthAdjust="spacing" textLength="231.0205" x="155.4" y="699.6914">parent_uuid : CHAR(36) &#171;PK, FK&#187;</text></g><!--class SequencingRun--><g class="entity" data-qualified-name="SequencingRun" data-source-line="52" id="ent0008"><rect fill="#FFFFFF" height="125.4844" rx="2.5" ry="2.5" style="stroke:#000000;stroke-width:1;" width="257.9023" x="1054.96" y="273.2394"/><ellipse cx="1125.378" cy="287.2394" fill="#FFFFFF" rx="9" ry="9" style="stroke:#000000;stroke-width:1;"/><path d="M1129.4873,293.2394 L1121.7686,293.2394 L1121.7686,280.8488 L1129.4873,280.8488 L1129.4873,283.005 L1124.2217,283.005 L1124.2217,285.6769 L1128.9873,285.6769 L1128.9873,287.8331 L1124.2217,287.8331 L1124.2217,291.0831 L1129.4873,291.0831 L1129.4873,293.2394 Z " fill="#000000"/><text fill="#000000" font-family="Verdana" font-size="14" lengthAdjust="spacing" textLength="109.5664" x="1142.878" y="292.0861">SequencingRun</text><line style="stroke:#000000;stroke-width:1;" x1="1055.96" x2="1311.8623" y1="301.2394" y2="301.2394"/><g data-visibility-modifier="IE_MANDATORY"><ellipse cx="1065.96" cy="314.8878" fill="#FFFFFF" rx="3" ry="3" style="stroke:#000000;stroke-width:1;"/></g><text fill="#000000" font-family="Verdana" font-size="14" lengthAdjust="spacing" textLength="119.2529" x="1072.96" y="318.2345">run_id : INT &#171;PK&#187;</text><line style="stroke:#000000;stroke-width:1;" x1="1055.96" x2="1311.8623" y1="325.5363" y2="325.5363"/><text fill="#000000" font-family="Verdana" font-size="14" lengthAdjust="spacing" textLength="245.9023" x="1060.96" y="342.5314">run_number : VARCHAR(100) &#171;UK&#187;</text><text fill="#000000" font-family="Verdana" font-size="14" lengthAdjust="spacing" textLength="229.6191" x="1060.96" y="358.8282">sequencing_type : VARCHAR(50)</text><text fill="#000000" font-family="Verdana" font-size="14" lengthAdjust="spacing" textLength="170.4404" x="1060.96" y="375.1251">date_sequencing : DATE</text><text fill="#000000" font-family="Verdana" font-size="14" lengthAdjust="spacing" textLength="109.3066" x="1060.96" y="391.422">file_path : TEXT</text></g><!--class Analysis--><g class="entity" data-qualified-name="Analysis" data-source-line="61" id="ent0009"><rect fill="#FFFFFF" height="296.4531" rx="2.5" ry="2.5" style="stroke:#000000;stroke-width:1;" width="256.624" x="562.6" y="520.4694"/><ellipse cx="658.3212" cy="534.4694" fill="#FFFFFF" rx="9" ry="9" style="stroke:#000000;stroke-width:1;"/><path d="M662.4306,540.4694 L654.7118,540.4694 L654.7118,528.0787 L662.4306,528.0787 L662.4306,530.235 L657.1649,530.235 L657.1649,532.9069 L661.9306,532.9069 L661.9306,535.0631 L657.1649,535.0631 L657.1649,538.3131 L662.4306,538.3131 L662.4306,540.4694 Z " fill="#000000"/><text fill="#000000" font-family="Verdana" font-size="14" lengthAdjust="spacing" textLength="57.6816" x="675.8212" y="539.3161">Analysis</text><line style="stroke:#000000;stroke-width:1;" x1="563.6" x2="818.224" y1="548.4694" y2="548.4694"/><g data-visibility-modifier="IE_MANDATORY"><ellipse cx="573.6" cy="562.1178" fill="#FFFFFF" rx="3" ry="3" style="stroke:#000000;stroke-width:1;"/></g><text fill="#000000" font-family="Verdana" font-size="14" lengthAdjust="spacing" textLength="152.4346" x="580.6" y="565.4645">analysis_id : INT &#171;PK&#187;</text><line style="stroke:#000000;stroke-width:1;" x1="563.6" x2="818.224" y1="572.7662" y2="572.7662"/><text fill="#000000" font-family="Verdana" font-size="14" lengthAdjust="spacing" textLength="124.2432" x="568.6" y="589.7614">phenotype : TEXT</text><text fill="#000000" font-family="Verdana" font-size="14" lengthAdjust="spacing" textLength="175.2939" x="568.6" y="606.0582">pipeline : VARCHAR(100)</text><text fill="#000000" font-family="Verdana" font-size="14" lengthAdjust="spacing" textLength="242.498" x="568.6" y="622.3551">reference_genome : VARCHAR(50)</text><text fill="#000000" font-family="Verdana" font-size="14" lengthAdjust="spacing" textLength="230.3984" x="568.6" y="638.652">mean_coverage : DECIMAL(10,2)</text><text fill="#000000" font-family="Verdana" font-size="14" lengthAdjust="spacing" textLength="244.624" x="568.6" y="654.9489">coverage_percent : DECIMAL(10,5)</text><text fill="#000000" font-family="Verdana" font-size="14" lengthAdjust="spacing" textLength="146.9795" x="568.6" y="671.2457">reads_count : BIGINT</text><text fill="#000000" font-family="Verdana" font-size="14" lengthAdjust="spacing" textLength="190.8867" x="568.6" y="687.5426">uniformity : DECIMAL(10,5)</text><text fill="#000000" font-family="Verdana" font-size="14" lengthAdjust="spacing" textLength="146.624" x="568.6" y="703.8395">date_analysis : DATE</text><text fill="#000000" font-family="Verdana" font-size="14" lengthAdjust="spacing" textLength="111.6035" x="568.6" y="720.1364">deadline : DATE</text><text fill="#000000" font-family="Verdana" font-size="14" lengthAdjust="spacing" textLength="184.167" x="568.6" y="736.4332">results_shared : BOOLEAN</text><line style="stroke:#000000;stroke-width:1;" x1="563.6" x2="818.224" y1="743.735" y2="743.735"/><text fill="#000000" font-family="Verdana" font-size="14" lengthAdjust="spacing" textLength="208.1201" x="568.6" y="760.7301">patient_uuid : CHAR(36) &#171;FK&#187;</text><text fill="#000000" font-family="Verdana" font-size="14" lengthAdjust="spacing" textLength="118.8633" x="568.6" y="777.027">run_id : INT &#171;FK&#187;</text><text fill="#000000" font-family="Verdana" font-size="14" lengthAdjust="spacing" textLength="144.2588" x="568.6" y="793.3239">project_id : INT &#171;FK&#187;</text><text fill="#000000" font-family="Verdana" font-size="14" lengthAdjust="spacing" textLength="161.5195" x="568.6" y="809.6207">diagnosis_id : INT &#171;FK&#187;</text></g><!--link Family to Patient--><g class="link" data-entity-1="ent0002" data-entity-2="ent0006" data-link-type="crowfoot" data-source-line="82" id="lnk10"><path codeLine="82" d="M169.6328,158.5609 C183.7928,180.6109 187.3643,186.183 204.6243,213.063" fill="none" id="Family-Patient" style="stroke:#000000;stroke-width:1;"/><line style="stroke:#000000;stroke-width:1;" x1="164.1057" x2="170.8372" y1="157.3565" y2="153.0337"/><line style="stroke:#000000;stroke-width:1;" x1="165.7267" x2="172.4582" y1="159.8809" y2="155.558"/><line style="stroke:#000000;stroke-width:1;" x1="169.6328" x2="165.31" y1="158.5609" y2="151.8294"/><line style="stroke:#000000;stroke-width:1;" x1="210.0275" x2="219.3988" y1="221.4777" y2="224.9675"/><line style="stroke:#000000;stroke-width:1;" x1="210.0275" x2="209.3012" y1="221.4777" y2="231.4513"/><line style="stroke:#000000;stroke-width:1;" x1="210.0275" x2="214.35" y1="221.4777" y2="228.2094"/><ellipse cx="206.7856" cy="216.4289" fill="none" rx="4" ry="4" style="stroke:#000000;stroke-width:1;"/><text fill="#000000" font-family="Verdana" font-size="13" lengthAdjust="spacing" textLength="22.9785" x="193.91" y="194.5663">has</text></g><!--link Partner to Patient--><g class="link" data-entity-1="ent0005" data-entity-2="ent0006" data-link-type="crowfoot" data-source-line="83" id="lnk11"><path codeLine="83" d="M402.2957,150.317 C387.2857,173.527 381.3244,182.7644 361.7044,213.1044" fill="none" id="Partner-Patient" style="stroke:#000000;stroke-width:1;"/><line style="stroke:#000000;stroke-width:1;" x1="401.109" x2="407.8267" y1="144.786" y2="149.1304"/><line style="stroke:#000000;stroke-width:1;" x1="399.4799" x2="406.1975" y1="147.3052" y2="151.6495"/><line style="stroke:#000000;stroke-width:1;" x1="402.2957" x2="406.64" y1="150.317" y2="143.5994"/><line style="stroke:#000000;stroke-width:1;" x1="356.2742" x2="356.9683" y1="221.5016" y2="231.4775"/><line style="stroke:#000000;stroke-width:1;" x1="356.2742" x2="346.8917" y1="221.5016" y2="224.9612"/><line style="stroke:#000000;stroke-width:1;" x1="356.2742" x2="351.93" y1="221.5016" y2="228.2194"/><ellipse cx="359.5323" cy="216.4633" fill="none" rx="4" ry="4" style="stroke:#000000;stroke-width:1;"/><text fill="#000000" font-family="Verdana" font-size="13" lengthAdjust="spacing" textLength="69.418" x="378.91" y="194.5663">references</text></g><!--link Patient to ParentChild--><g class="link" data-entity-1="ent0006" data-entity-2="ent0007" data-link-type="crowfoot" data-source-line="84" id="lnk12"><path codeLine="84" d="M231.2921,451.3821 C228.1421,461.2721 227.88,463.6494 225.91,473.4694 C215,527.9294 226.9184,574.1692 241.9684,613.2992" fill="none" id="Patient-ParentChild" style="stroke:#000000;stroke-width:1;"/><line style="stroke:#000000;stroke-width:1;" x1="228.6947" x2="236.3174" y1="446.3568" y2="448.7847"/><line style="stroke:#000000;stroke-width:1;" x1="227.7843" x2="235.407" y1="449.2153" y2="451.6432"/><line style="stroke:#000000;stroke-width:1;" x1="231.2921" x2="233.72" y1="451.3821" y2="443.7594"/><line style="stroke:#000000;stroke-width:1;" x1="245.5582" x2="254.0301" y1="622.6326" y2="627.9455"/><line style="stroke:#000000;stroke-width:1;" x1="245.5582" x2="242.8299" y1="622.6326" y2="632.2532"/><line style="stroke:#000000;stroke-width:1;" x1="245.5582" x2="248.43" y1="622.6326" y2="630.0994"/><ellipse cx="243.4043" cy="617.0325" fill="none" rx="4" ry="4" style="stroke:#000000;stroke-width:1;"/><text fill="#000000" font-family="Verdana" font-size="13" lengthAdjust="spacing" textLength="30.8623" x="226.91" y="486.5363">child</text></g><!--link Patient to ParentChild--><g class="link" data-entity-1="ent0006" data-entity-2="ent0007" data-link-type="crowfoot" data-source-line="85" id="lnk13"><path codeLine="85" d="M276.6554,451.8876 C273.1754,515.8576 270.379,567.266 267.929,612.246" fill="none" id="Patient-ParentChild-1" style="stroke:#000000;stroke-width:1;"/><line style="stroke:#000000;stroke-width:1;" x1="272.8786" x2="280.8668" y1="447.6762" y2="448.1108"/><line style="stroke:#000000;stroke-width:1;" x1="272.7157" x2="280.7039" y1="450.6718" y2="451.1063"/><line style="stroke:#000000;stroke-width:1;" x1="276.6554" x2="277.09" y1="451.8876" y2="443.8994"/><line style="stroke:#000000;stroke-width:1;" x1="267.3851" x2="272.9411" y1="622.2312" y2="630.5457"/><line style="stroke:#000000;stroke-width:1;" x1="267.3851" x2="260.9589" y1="622.2312" y2="629.893"/><line style="stroke:#000000;stroke-width:1;" x1="267.3851" x2="266.95" y1="622.2312" y2="630.2194"/><ellipse cx="267.7114" cy="616.2401" fill="none" rx="4" ry="4" style="stroke:#000000;stroke-width:1;"/><text fill="#000000" font-family="Verdana" font-size="13" lengthAdjust="spacing" textLength="42.8975" x="276.91" y="486.5363">parent</text></g><!--link SequencingRun to Analysis--><g class="link" data-entity-1="ent0008" data-entity-2="ent0009" data-link-type="crowfoot" data-source-line="86" id="lnk14"><path codeLine="86" d="M1093.8698,403.8844 C1073.5998,418.6244 1058.34,429.4294 1037.91,443.4694 C966.53,492.5094 900.4648,535.5038 834.5448,577.4638" fill="none" id="SequencingRun-Analysis" style="stroke:#000000;stroke-width:1;"/><line style="stroke:#000000;stroke-width:1;" x1="1094.7524" x2="1099.4574" y1="398.2968" y2="404.767"/><line style="stroke:#000000;stroke-width:1;" x1="1092.3261" x2="1097.0311" y1="400.0612" y2="406.5313"/><line style="stroke:#000000;stroke-width:1;" x1="1093.8698" x2="1100.34" y1="403.8844" y2="399.1794"/><line style="stroke:#000000;stroke-width:1;" x1="826.1088" x2="822.5818" y1="582.8336" y2="592.191"/><line style="stroke:#000000;stroke-width:1;" x1="826.1088" x2="816.1382" y1="582.8336" y2="582.0678"/><line style="stroke:#000000;stroke-width:1;" x1="826.1088" x2="819.36" y1="582.8336" y2="587.1294"/><ellipse cx="831.1704" cy="579.6117" fill="none" rx="4" ry="4" style="stroke:#000000;stroke-width:1;"/><text fill="#000000" font-family="Verdana" font-size="13" lengthAdjust="spacing" textLength="47.2456" x="991.91" y="486.5363">used in</text></g><!--link Project to Analysis--><g class="link" data-entity-1="ent0003" data-entity-2="ent0009" data-link-type="crowfoot" data-source-line="87" id="lnk15"><path codeLine="87" d="M584.6897,382.0972 C598.0097,417.8972 609.8666,449.7679 629.8266,503.4479" fill="none" id="Project-Analysis" style="stroke:#000000;stroke-width:1;"/><line style="stroke:#000000;stroke-width:1;" x1="579.5459" x2="587.0438" y1="379.7431" y2="376.9534"/><line style="stroke:#000000;stroke-width:1;" x1="580.5921" x2="588.0899" y1="382.5548" y2="379.7651"/><line style="stroke:#000000;stroke-width:1;" x1="584.6897" x2="581.9" y1="382.0972" y2="374.5994"/><line style="stroke:#000000;stroke-width:1;" x1="633.3118" x2="641.7238" y1="512.821" y2="518.2283"/><line style="stroke:#000000;stroke-width:1;" x1="633.3118" x2="630.4762" y1="512.821" y2="522.4105"/><line style="stroke:#000000;stroke-width:1;" x1="633.3118" x2="636.1" y1="512.821" y2="520.3194"/><ellipse cx="631.2207" cy="507.1972" fill="none" rx="4" ry="4" style="stroke:#000000;stroke-width:1;"/><text fill="#000000" font-family="Verdana" font-size="13" lengthAdjust="spacing" textLength="74.9658" x="622.91" y="486.5363">categorizes</text></g><!--link Diagnosis to Analysis--><g class="link" data-entity-1="ent0004" data-entity-2="ent0009" data-link-type="crowfoot" data-source-line="88" id="lnk16"><path codeLine="88" d="M849.0158,389.5738 C828.6658,425.3638 812.0076,454.6923 783.7176,504.4423" fill="none" id="Diagnosis-Analysis" style="stroke:#000000;stroke-width:1;"/><line style="stroke:#000000;stroke-width:1;" x1="847.5157" x2="854.4701" y1="384.1195" y2="388.0737"/><line style="stroke:#000000;stroke-width:1;" x1="846.0328" x2="852.9872" y1="386.7274" y2="390.6816"/><line style="stroke:#000000;stroke-width:1;" x1="849.0158" x2="852.97" y1="389.5738" y2="382.6194"/><line style="stroke:#000000;stroke-width:1;" x1="778.7745" x2="780.0357" y1="513.1351" y2="523.0553"/><line style="stroke:#000000;stroke-width:1;" x1="778.7745" x2="769.6043" y1="513.1351" y2="517.1235"/><line style="stroke:#000000;stroke-width:1;" x1="778.7745" x2="774.82" y1="513.1351" y2="520.0894"/><ellipse cx="781.7404" cy="507.9194" fill="none" rx="4" ry="4" style="stroke:#000000;stroke-width:1;"/><text fill="#000000" font-family="Verdana" font-size="13" lengthAdjust="spacing" textLength="57.8652" x="796.91" y="486.5363">assigned</text></g><!--link Patient to Analysis--><g class="link" data-entity-1="ent0006" data-entity-2="ent0009" data-link-type="crowfoot" data-source-line="89" id="lnk17"><path codeLine="89" d="M405.775,436.5666 C456.645,477.7966 496.2463,509.9055 548.3863,552.1655" fill="none" id="Patient-Analysis" style="stroke:#000000;stroke-width:1;"/><line style="stroke:#000000;stroke-width:1;" x1="400.1489" x2="405.1861" y1="437.1555" y2="430.9405"/><line style="stroke:#000000;stroke-width:1;" x1="402.4795" x2="407.5167" y1="439.0445" y2="432.8295"/><line style="stroke:#000000;stroke-width:1;" x1="405.775" x2="399.56" y1="436.5666" y2="431.5294"/><line style="stroke:#000000;stroke-width:1;" x1="556.155" x2="566.148" y1="558.4621" y2="558.8382"/><line style="stroke:#000000;stroke-width:1;" x1="556.155" x2="558.592" y1="558.4621" y2="568.1606"/><line style="stroke:#000000;stroke-width:1;" x1="556.155" x2="562.37" y1="558.4621" y2="563.4994"/><ellipse cx="551.4938" cy="554.6841" fill="none" rx="4" ry="4" style="stroke:#000000;stroke-width:1;"/><text fill="#000000" font-family="Verdana" font-size="13" lengthAdjust="spacing" textLength="88.7085" x="462.91" y="486.5363">performed on</text></g><?plantuml-src XLJTRjCm5BxFKvZUT9rMQHig5zCqATjQcDYVIeVALUGbRcAKE25E46L3OaC8eLtm1aYymM1Kwu2DLt3UY9F4QRAa4QgKsZxV-VlEpuF08Wv1deqfKvI01ZP1tNvR_1HJSIckelVm_GE_IoIkn4JSYabqBgRH9_W_4x_4dRX1uZjWhgCB14gNWBYDBgAFYj94uglu2mOcy3uHlnFjgPYWw2pw47s6onsSpk7vHY4CF8zH3plK7gCJ1Q55D4ek6ZNG6jhP7w3rzSEd6niWQhVX8wMwQn2GFrVxMq_K_a9dkGMuenH7EOWPnymCAIDko06uUN2msrNtbNTAvlFGTryIFP1ElVHMvpKJC-mKtQuivtvpoziKcypbb4lRHdQlivu3Iccj5DFAKGRXka-zWBgi05xjT5h5_B0VCE9d-QMtsloak9HVRBAQto4EA1ndbfER5eQ9xKJluQDMoS4YWbgir5MCapSWwkuVxIqqXyFcKdFuejcAYntQzhoOG7HC_S3I31p4icrrq8KtdzWu9eLRr2jgBCSAElODZONECN1oBmoGOSEXd8DcoM2numhCzTAevt3QApFbmsdBehOXsTBZyrokbf0qcnIhZb69obqy8wz2mdJAp7x8f1C_P7M5ZaKL4efj71SZiwW5OuzKo8efqd9GpjQ8saI3Th3WQT0T3WfHgWpRutmYiBpMjgD5c2kT9vRWYNh4Xd4kXPrKVKI0Bvre9cWvrO0TWXbCrclYOpCfRdThPq_T1VsbrQGpf4ZpYA_7ZNqFqabzO2EUpZ2HRkuyXfZXEMHqvFfEd65L9-4fopHdoG1JCf5Ps_BG3hZ6BQYxKLXMi-6icp3PCQLwP-rPNMczyYQPqxgmlh-97z4NSIscYbpCfwVjjdio6_mrrB0mRoZPYgcAPpL9KEdp39NF122JWVWVA1s8XdA_sILMpIbkX1m8f0pioUq-1wD3NKpNfs_ZuF9TFGU9OIUOZ5J3AuAWQU8U0BykQ_m3?></g></svg>